<?xml version="1.0" encoding="utf-8"?>
<!DOCTYPE svg PUBLIC "-//W3C//DTD SVG 1.1//EN" "http://www.w3.org/Graphics/SVG/1.1/DTD/svg11.dtd">
<svg version="1.1" id="CERP Calculator Logo" xmlns="http://www.w3.org/2000/svg" xmlns:xlink="http://www.w3.org/1999/xlink" x="0px" y="0px"
	 width="436.112px" height="100px" viewBox="0 0 436.112 100" enable-background="new 0 0 436.112 100" xml:space="preserve">
<g>
	<path fill="#0071BC" stroke="#0071BC" stroke-width="0.5556" stroke-miterlimit="10" d="M179.976,77.784
		c-1.417,0-2.229-0.566-2.833-1.794l-1.737-3.513c-0.321-0.642-0.51-1.247-0.51-1.983c0-0.832,0.151-1.341,0.529-2.097l1.738-3.494
		c0.642-1.303,1.454-1.813,2.909-1.813h3.21c0.416,0,0.944,0.227,0.944,0.944c0,0.68-0.51,0.944-0.944,0.944h-3.154
		c-0.812,0-0.945,0.076-1.303,0.793l-1.644,3.287c-0.245,0.51-0.396,0.85-0.396,1.436c0,0.528,0.17,0.85,0.396,1.303l1.605,3.268
		c0.378,0.774,0.567,0.831,1.417,0.831h3.079c0.416,0,0.944,0.227,0.944,0.944c0,0.68-0.51,0.944-0.944,0.944H179.976z"/>
	<path fill="#0071BC" stroke="#0071BC" stroke-width="0.5556" stroke-miterlimit="10" d="M198.808,64.054
		c0.151-0.51,0.359-0.963,0.963-0.963c0.624,0,0.85,0.472,0.982,0.963l3.646,12.786c0.132,0.454-0.378,0.944-0.907,0.944
		c-0.585,0-0.888-0.491-1.02-0.944l-0.699-2.266h-4.023l-0.718,2.266c-0.132,0.454-0.434,0.944-1.02,0.944
		c-0.529,0-1.039-0.491-0.907-0.944L198.808,64.054z M199.79,67.566h-0.038l-1.473,5.118h2.965L199.79,67.566z"/>
	<path fill="#0071BC" stroke="#0071BC" stroke-width="0.5556" stroke-miterlimit="10" d="M223.703,75.896
		c0.491,0,0.944,0.264,0.944,0.944c0,0.68-0.453,0.944-0.944,0.944h-8.386v-13.75c0-0.604,0.264-0.944,0.944-0.944
		c0.68,0,0.944,0.34,0.944,0.944v11.861H223.703z"/>
	<path fill="#0071BC" stroke="#0071BC" stroke-width="0.5556" stroke-miterlimit="10" d="M240.608,77.784
		c-1.417,0-2.229-0.566-2.833-1.794l-1.737-3.513c-0.321-0.642-0.51-1.247-0.51-1.983c0-0.832,0.151-1.341,0.528-2.097l1.738-3.494
		c0.643-1.303,1.454-1.813,2.908-1.813h3.211c0.415,0,0.944,0.227,0.944,0.944c0,0.68-0.511,0.944-0.944,0.944h-3.154
		c-0.812,0-0.944,0.076-1.303,0.793l-1.644,3.287c-0.245,0.51-0.396,0.85-0.396,1.436c0,0.528,0.17,0.85,0.396,1.303l1.605,3.268
		c0.378,0.774,0.567,0.831,1.417,0.831h3.078c0.415,0,0.944,0.227,0.944,0.944c0,0.68-0.511,0.944-0.944,0.944H240.608z"/>
	<path fill="#0071BC" stroke="#0071BC" stroke-width="0.5556" stroke-miterlimit="10" d="M258.798,77.784
		c-0.944,0-1.681-0.227-2.342-0.963c-0.623-0.699-0.718-1.379-0.718-2.247V64.035c0-0.604,0.265-0.944,0.944-0.944
		s0.944,0.34,0.944,0.944v10.539c0,1.058,0.321,1.322,1.171,1.322h3.211c0.85,0,1.171-0.264,1.171-1.322V64.035
		c0-0.604,0.265-0.944,0.944-0.944s0.944,0.34,0.944,0.944v10.539c0,0.868-0.095,1.548-0.718,2.247
		c-0.66,0.737-1.397,0.963-2.342,0.963H258.798z"/>
	<path fill="#0071BC" stroke="#0071BC" stroke-width="0.5556" stroke-miterlimit="10" d="M284.335,75.896
		c0.49,0,0.943,0.264,0.943,0.944c0,0.68-0.453,0.944-0.943,0.944h-8.387v-13.75c0-0.604,0.265-0.944,0.945-0.944
		c0.68,0,0.943,0.34,0.943,0.944v11.861H284.335z"/>
	<path fill="#0071BC" stroke="#0071BC" stroke-width="0.5556" stroke-miterlimit="10" d="M299.863,64.054
		c0.15-0.51,0.357-0.963,0.963-0.963c0.623,0,0.85,0.472,0.982,0.963l3.645,12.786c0.133,0.454-0.378,0.944-0.906,0.944
		c-0.586,0-0.889-0.491-1.02-0.944l-0.699-2.266h-4.023l-0.717,2.266c-0.133,0.454-0.436,0.944-1.021,0.944
		c-0.528,0-1.039-0.491-0.906-0.944L299.863,64.054z M300.844,67.566h-0.038l-1.473,5.118h2.965L300.844,67.566z"/>
	<path fill="#0071BC" stroke="#0071BC" stroke-width="0.5556" stroke-miterlimit="10" d="M318.259,64.979v0.68
		c0,0.604-0.264,0.944-0.944,0.944c-0.68,0-0.944-0.34-0.944-0.944V63.09h9.33v2.568c0,0.604-0.264,0.944-0.943,0.944
		c-0.681,0-0.945-0.34-0.945-0.944v-0.68h-1.832V76.84c0,0.604-0.264,0.944-0.944,0.944c-0.68,0-0.944-0.34-0.944-0.944V64.979
		H318.259z"/>
	<path fill="#0071BC" stroke="#0071BC" stroke-width="0.5556" stroke-miterlimit="10" d="M345.421,68.397
		c0.358,0.737,0.49,1.284,0.49,2.097c0,0.906-0.245,1.473-0.623,2.247l-1.737,3.476c-0.454,0.906-1.208,1.567-2.304,1.567
		s-1.852-0.661-2.305-1.567l-1.737-3.476c-0.378-0.774-0.624-1.341-0.624-2.247c0-0.812,0.133-1.36,0.491-2.097l1.889-3.759
		c0.454-0.887,1.228-1.548,2.286-1.548c1.057,0,1.831,0.661,2.285,1.548L345.421,68.397z M341.889,65.545
		c-0.151-0.302-0.245-0.566-0.642-0.566c-0.397,0-0.492,0.264-0.643,0.566l-1.699,3.418c-0.283,0.548-0.436,0.907-0.436,1.53
		c0,0.491,0.113,0.831,0.321,1.246l1.813,3.589c0.133,0.264,0.264,0.566,0.643,0.566c0.377,0,0.51-0.302,0.642-0.566l1.813-3.589
		c0.207-0.416,0.32-0.755,0.32-1.246c0-0.624-0.15-0.982-0.434-1.53L341.889,65.545z"/>
	<path fill="#0071BC" stroke="#0071BC" stroke-width="0.5556" stroke-miterlimit="10" d="M358.681,76.84
		c0,0.604-0.264,0.944-0.944,0.944c-0.68,0-0.944-0.34-0.944-0.944V63.09h6.347c1.491,0,2.983,1.058,2.983,2.738v1.304
		c0,1.775-1.473,2.682-2.983,2.682h-1.737l4.249,6.082c0.208,0.283,0.472,0.642,0.472,1.001c0,0.529-0.434,0.888-0.963,0.888
		c-0.377,0-0.623-0.227-0.831-0.529l-5.212-7.441h-0.436V76.84z M358.681,67.925h4.193c0.529,0,1.359-0.038,1.359-0.793v-1.304
		c0-0.755-0.773-0.85-1.341-0.85h-4.212V67.925z"/>
</g>
<g>
	<path fill="#808184" d="M130.891,44.18c0,2.23-0.426,4.06-1.275,5.487c-0.852,1.429-2.274,2.143-4.27,2.143
		c-2.536,0-4.229-0.844-5.077-2.529c-0.852-1.686-1.276-4.128-1.276-7.326c0-2.069,0.103-3.819,0.311-5.253
		c0.208-1.434,0.782-2.699,1.719-3.794c0.938-1.095,2.378-1.643,4.324-1.643c1.63,0,2.962,0.5,3.996,1.497
		c1.034,0.999,1.549,2.688,1.549,5.064h-2.058c0-1.335-0.244-2.421-0.728-3.254c-0.487-0.834-1.477-1.25-2.969-1.25
		c-1.649,0-2.673,0.861-3.074,2.581c-0.398,1.722-0.598,3.738-0.598,6.051c0,2.451,0.222,4.365,0.665,5.737
		c0.443,1.374,1.445,2.061,3.007,2.061c1.423,0,2.361-0.549,2.812-1.647c0.451-1.098,0.676-2.407,0.676-3.925H130.891z"/>
	<path fill="#808184" d="M144.612,51.366h-10.233V31.891h2.266v17.42h7.967V51.366z"/>
	<path fill="#808184" d="M149.976,51.366h-2.265V31.891h2.265V51.366z"/>
	<path fill="#808184" d="M170.91,51.366h-2.16V35.253v-2.479l-0.65,2.656l-4.09,15.936h-2.577l-4.088-16.17l-0.573-2.395v2.526
		v16.038h-2.161V31.813h3.812l3.856,15.253c0.134,0.574,0.236,1.057,0.303,1.448c0.066,0.391,0.101,0.872,0.101,1.446
		c0.086-0.486,0.169-0.964,0.248-1.432c0.079-0.468,0.179-0.964,0.301-1.484l3.883-15.231h3.795V51.366z"/>
	<path fill="#808184" d="M187.081,51.366l-2.431-0.004l-1.431-5.541h-6.197l-1.437,5.542l-2.435,0.003l5.521-19.476h3.098
		L187.081,51.366z M182.577,43.763l-2.447-10.061l-2.473,10.061H182.577z"/>
	<path fill="#808184" d="M200.021,34.155h-4.922v17.211h-2.265V34.155h-5.129v-2.264h12.316V34.155z"/>
	<path fill="#808184" d="M212.521,33.948h-7.787v6.144h7.16v2.057h-7.16v7.162h7.578v2.056h-9.844V31.891h10.053V33.948z"/>
	<path fill="#808184" d="M233.533,33.948h-7.787v6.144h7.161v2.057h-7.161v7.162h7.577v2.056h-9.842V31.891h10.052V33.948z"/>
	<path fill="#808184" d="M249.935,50.743l-1.254,1.429l-2.23-1.828c-0.537,0.551-1.146,0.933-1.822,1.146
		c-0.678,0.214-1.303,0.32-1.875,0.32c-2.519,0-4.242-0.904-5.172-2.711c-0.93-1.808-1.395-4.189-1.395-7.144
		c0-3.336,0.477-5.918,1.433-7.742c0.955-1.827,2.595-2.738,4.921-2.738c2.257,0,3.914,0.712,4.975,2.135
		c1.057,1.422,1.587,3.923,1.587,7.499c0,2.083-0.09,3.58-0.273,4.491c-0.183,0.912-0.568,2.018-1.159,3.321L249.935,50.743z
		 M246.89,41.317c0-3.126-0.375-5.204-1.124-6.237c-0.749-1.032-1.82-1.55-3.213-1.55c-1.688,0-2.795,0.761-3.317,2.282
		c-0.522,1.523-0.783,3.291-0.783,5.308v1.043c0,2.26,0.299,4.09,0.898,5.49c0.599,1.399,1.732,2.099,3.398,2.099
		c0.469,0,0.902-0.082,1.301-0.249c0.4-0.166,0.652-0.354,0.756-0.563l-1.85-1.468l1.225-1.442l1.641,1.431
		c0.261-0.329,0.503-1.057,0.729-2.188c0.225-1.126,0.339-2.187,0.339-3.176v-0.494C246.89,41.464,246.89,41.369,246.89,41.317z"/>
	<path fill="#808184" d="M264.673,46.672c0,1.339-0.391,2.531-1.17,3.574c-0.783,1.043-2.302,1.563-4.559,1.563
		c-2.412,0-4.039-0.487-4.881-1.459c-0.842-0.974-1.263-2.477-1.263-4.512V31.891h2.265v13.951c0,1.461,0.311,2.477,0.931,3.051
		c0.62,0.573,1.533,0.859,2.741,0.859c1.293,0,2.227-0.351,2.805-1.056c0.577-0.704,0.867-1.787,0.867-3.246v-13.56h2.264V46.672z"
		/>
	<path fill="#808184" d="M271.289,51.366h-2.267V31.891h2.267V51.366z"/>
	<path fill="#808184" d="M286.466,34.155h-4.922v17.211h-2.265V34.155h-5.129v-2.264h12.315V34.155z"/>
	<path fill="#808184" d="M300.985,31.891l-5.509,12.107v7.369h-2.266v-7.369l-5.936-12.107l2.665-0.005l4.303,9.605l4.295-9.605
		L300.985,31.891z"/>
	<path fill="#808184" d="M324.404,51.366h-2.648c-0.347-0.658-0.568-2.26-0.662-4.803c-0.096-2.543-1.104-3.814-3.027-3.814h-3.895
		v8.617h-2.266V31.891h5.729c2.117,0,3.602,0.441,4.452,1.326c0.85,0.883,1.345,2.08,1.484,3.586c0,1.266-0.368,2.341-1.106,3.224
		c-0.738,0.885-1.594,1.378-2.565,1.481c1.077,0.278,1.813,0.517,2.214,0.717c0.398,0.201,0.686,0.788,0.859,1.761
		c0.121,1.409,0.277,2.908,0.469,4.498c0.19,1.592,0.512,2.344,0.963,2.257V51.366z M321.123,37.009
		c-0.104-1.091-0.463-1.873-1.076-2.349c-0.613-0.475-1.551-0.712-2.814-0.712h-3.061v6.744h3.476c1.124,0,1.989-0.285,2.594-0.856
		c0.606-0.57,0.909-1.358,0.909-2.36C321.15,37.268,321.14,37.111,321.123,37.009z"/>
	<path fill="#808184" d="M337.529,33.948h-7.787v6.144h7.162v2.057h-7.162v7.162h7.578v2.056h-9.844V31.891h10.053V33.948z"/>
	<path fill="#808184" d="M349.818,33.948h-6.953v6.144h6.537v2.057h-6.537v9.217H340.6V31.891h9.218V33.948z"/>
	<path fill="#808184" d="M362.134,33.948h-7.787v6.144h7.162v2.057h-7.162v7.162h7.578v2.056h-9.844V31.891h10.053V33.948z"/>
	<path fill="#808184" d="M378.121,51.366h-2.648c-0.346-0.658-0.568-2.26-0.662-4.803c-0.096-2.543-1.104-3.814-3.027-3.814h-3.895
		v8.617h-2.266V31.891h5.729c2.117,0,3.602,0.441,4.452,1.326c0.85,0.883,1.345,2.08,1.484,3.586c0,1.266-0.368,2.341-1.106,3.224
		c-0.739,0.885-1.594,1.378-2.565,1.481c1.077,0.278,1.813,0.517,2.214,0.717c0.399,0.201,0.686,0.788,0.859,1.761
		c0.121,1.409,0.277,2.908,0.469,4.498c0.19,1.592,0.512,2.344,0.963,2.257V51.366z M374.839,37.009
		c-0.104-1.091-0.463-1.873-1.076-2.349c-0.613-0.475-1.551-0.712-2.814-0.712h-3.061v6.744h3.476c1.124,0,1.989-0.285,2.594-0.856
		c0.606-0.57,0.909-1.358,0.909-2.36C374.867,37.268,374.857,37.111,374.839,37.009z"/>
	<path fill="#808184" d="M391.246,33.948h-7.787v6.144h7.162v2.057h-7.162v7.162h7.578v2.056h-9.844V31.891h10.053V33.948z"/>
	<path fill="#808184" d="M406.398,51.366h-3.672l-6.146-17.836v17.836h-2.265V31.891l3.732-0.013l6.129,17.625l-0.045-17.611h2.266
		V51.366z"/>
	<path fill="#808184" d="M421.578,44.18c0,2.23-0.425,4.06-1.275,5.487c-0.851,1.429-2.273,2.143-4.27,2.143
		c-2.535,0-4.227-0.844-5.079-2.529c-0.85-1.686-1.275-4.128-1.275-7.326c0-2.069,0.104-3.819,0.313-5.253
		c0.207-1.434,0.78-2.699,1.719-3.794c0.938-1.095,2.377-1.643,4.322-1.643c1.63,0,2.963,0.5,3.996,1.497
		c1.031,0.999,1.549,2.688,1.549,5.064h-2.057c0-1.335-0.244-2.421-0.729-3.254c-0.486-0.834-1.477-1.25-2.969-1.25
		c-1.648,0-2.674,0.861-3.072,2.581c-0.4,1.722-0.6,3.738-0.6,6.051c0,2.451,0.222,4.365,0.665,5.737
		c0.441,1.374,1.444,2.061,3.007,2.061c1.423,0,2.359-0.549,2.812-1.647c0.451-1.098,0.678-2.407,0.678-3.925H421.578z"/>
	<path fill="#808184" d="M434.911,33.948h-7.786v6.144h7.161v2.057h-7.161v7.162h7.577v2.056h-9.843V31.891h10.052V33.948z"/>
</g>
<g>
	<path id="XMLID_269_" fill-rule="evenodd" clip-rule="evenodd" fill="#009245" d="M2.957,39.029
		c4.18-17.06,17.058-29.702,32.761-34.37c-9.19,6.397-16.178,16.039-19.052,27.769C10.403,58,26.052,83.805,51.624,90.068
		c8.51,2.084,17.047,1.739,24.881-0.589c-10.841,7.547-24.75,10.579-38.588,7.19C12.344,90.406-3.306,64.599,2.957,39.029z"/>
	<path id="XMLID_267_" fill-rule="evenodd" clip-rule="evenodd" fill="#0071BC" d="M69.655,85.374
		c-14.988,2.629-29.498-3.179-38.671-14.006c8.277,5.06,18.356,7.242,28.662,5.435c22.458-3.942,37.471-25.343,33.53-47.804
		c-1.31-7.476-4.561-14.125-9.135-19.525c9.762,5.969,17.01,15.941,19.144,28.097C107.125,60.03,92.113,81.432,69.655,85.374z"/>
	<path id="XMLID_265_" fill-rule="evenodd" clip-rule="evenodd" fill="#8CC63F" d="M76.897,8.552
		c8.812,6.983,12.734,17.85,11.262,28.237c-1.27-7.057-5.021-13.696-11.079-18.498c-13.209-10.468-32.407-8.243-42.873,4.966
		c-3.483,4.396-5.56,9.455-6.294,14.636c-1.497-8.322,0.445-17.226,6.109-24.375C44.491,0.31,63.688-1.916,76.897,8.552z"/>
	<circle fill-rule="evenodd" clip-rule="evenodd" fill="#808184" cx="47.477" cy="38.172" r="14.55"/>
</g>
</svg>