<?xml version="1.0" standalone="no"?>
<?xml-stylesheet type="text/css" href="http://gdrights.org/calculator_dev/css/country_graphs.css" ?>
<svg width="500px" height="312px" version = "1.1"
   baseProfile="basic"
   xmlns="http://www.w3.org/2000/svg">
<defs>
</defs>
<line class="hrule" x1="50" y1="201" x2="485" y2="201" width="1" stroke="black" stroke-dasharray="1,2" />
<line class="hrule" x1="50" y1="140" x2="485" y2="140" width="1" stroke="black" stroke-dasharray="1,2" />
<line class="hrule" x1="50" y1="79" x2="485" y2="79" width="1" stroke="black" stroke-dasharray="1,2" />
<line class="hrule" x1="50" y1="18" x2="485" y2="18" width="1" stroke="black" stroke-dasharray="1,2" />
<line x1="50" y1="262" x2="485" y2="262" stroke="black" />
<text text-anchor="middle" font-family="Arial" font-size="9pt" x="50" y="280">
1990</text>
<text text-anchor="middle" font-family="Arial" font-size="9pt" x="158" y="280">
2000</text>
<text text-anchor="middle" font-family="Arial" font-size="9pt" x="266" y="280">
2010</text>
<text text-anchor="middle" font-family="Arial" font-size="9pt" x="374" y="280">
2020</text>
<text text-anchor="middle" font-family="Arial" font-size="9pt" x="482" y="280">
2030</text>
<text class="axis-title" text-anchor="middle" font-family="Arial" font-size="11pt" x="268" y="297">
</text>
<text text-anchor="middle" font-family="Arial" font-size="9pt" x="32" y="267">
0</text>
<text text-anchor="middle" font-family="Arial" font-size="9pt" x="32" y="206">
5,000</text>
<text text-anchor="middle" font-family="Arial" font-size="9pt" x="32" y="145">
10,000</text>
<text text-anchor="middle" font-family="Arial" font-size="9pt" x="32" y="84">
15,000</text>
<text text-anchor="middle" font-family="Arial" font-size="9pt" x="32" y="23">
20,000</text>
<text class="axis-title" text-anchor="middle" font-family="Arial" font-size="11pt" x="0" y="0" transform="rotate(-90) translate(-138,15)">
MtCO2e</text>
<polygon stroke-width="0" stroke="#000" id="mit_oblig" fill="#8ebd7f" fill-opacity="0.8" points="278,131 289,124 300,118 311,112 322,107 333,101 344,96 355,91 365,86 376,82 387,77 398,73 409,70 420,66 431,63 442,59 452,56 463,54 474,51 485,49 485,129 474,125 463,121 452,117 442,114 431,111 420,109 409,107 398,105 387,105 376,104 365,105 355,105 344,107 333,108 322,111 311,115 300,119 289,125 278,131 " />
<polygon stroke-width="0" stroke="#000" id="supported_mit" fill="#6b87c3" fill-opacity="0.8" points="278,131 289,126 300,123 311,123 322,126 333,131 344,136 355,142 365,148 376,154 387,160 398,165 409,170 420,175 431,180 442,185 452,190 463,194 474,198 485,202 485,129 474,125 463,121 452,117 442,114 431,111 420,109 409,107 398,105 387,105 376,104 365,105 355,105 344,107 333,108 322,111 311,115 300,119 289,125 278,131 " />
<polyline id="bau" stroke-width="1" stroke="#000" points="278,131 289,124 300,118 311,112 322,107 333,101 344,96 355,91 365,86 376,82 387,77 398,73 409,70 420,66 431,63 442,59 452,56 463,54 474,51 485,49 " fill="none" />
<polyline id="physical" stroke-width="1" stroke="#000" points="278,131 289,126 300,123 311,123 322,126 333,131 344,136 355,142 365,148 376,154 387,160 398,165 409,170 420,175 431,180 442,185 452,190 463,194 474,198 485,202 " fill="none" />
<polyline id="gdrs_alloc" stroke-width="1" stroke="#000" points="278,131 289,125 300,119 311,115 322,111 333,108 344,107 355,105 365,105 376,104 387,105 398,105 409,107 420,109 431,111 442,114 452,117 463,121 474,125 485,129 " fill="none" />
<polyline id="historical" stroke-width="1" stroke="#000" points="50,215 61,215 72,214 83,212 94,210 104,207 115,205 126,206 137,206 148,206 159,206 170,207 181,202 191,195 202,185 213,179 224,170 235,164 246,156 257,147 268,137 278,131 " fill="none" />
</svg>
