<?xml version="1.0" standalone="no"?>
<?xml-stylesheet type="text/css" href="http://gdrights.org/calculator_dev/css/country_graphs.css" ?>
<svg width="500px" height="312px" version = "1.1"
   baseProfile="basic"
   xmlns="http://www.w3.org/2000/svg">
<defs>
<pattern id="intl_oblig_stripes" x="0" y="0" width="5%" height="10%" patternUnits="objectBoundingBox"><line class="stripe" x1="0" y1="0" x2="0" y2="100" stroke="#F00" stroke-width="5"/></pattern>
</defs>
<line class="hrule" x1="50" y1="262" x2="485" y2="262" width="1" stroke="black" stroke-dasharray="1,2" />
<line class="hrule" x1="50" y1="98" x2="485" y2="98" width="1" stroke="black" stroke-dasharray="1,2" />
<line class="hrule" x1="50" y1="16" x2="485" y2="16" width="1" stroke="black" stroke-dasharray="1,2" />
<line class="axis" x1="50" y1="180" x2="485" y2="180" stroke="black" />
<text class="axis-label-x" text-anchor="middle" font-family="Arial" font-size="9pt" x="50" y="282">
1990</text>
<text class="axis-label-x" text-anchor="middle" font-family="Arial" font-size="9pt" x="158" y="282">
2000</text>
<text class="axis-label-x" text-anchor="middle" font-family="Arial" font-size="9pt" x="266" y="282">
2010</text>
<text class="axis-label-x" text-anchor="middle" font-family="Arial" font-size="9pt" x="374" y="282">
2020</text>
<text class="axis-label-x" text-anchor="middle" font-family="Arial" font-size="9pt" x="482" y="282">
2030</text>
<text class="axis-title" text-anchor="middle" font-family="Arial" font-size="11pt" x="268" y="215">
</text>
<text class="axis-label-y" text-anchor="end" font-family="Arial" font-size="9pt" x="46" y="265">
-50</text>
<text class="axis-label-y" text-anchor="end" font-family="Arial" font-size="9pt" x="46" y="183">
0</text>
<text class="axis-label-y" text-anchor="end" font-family="Arial" font-size="9pt" x="46" y="101">
50</text>
<text class="axis-label-y" text-anchor="end" font-family="Arial" font-size="9pt" x="46" y="19">
100</text>
<text class="axis-title" text-anchor="middle" font-family="Arial" font-size="11pt" x="0" y="0" transform="rotate(-90) translate(-138,12)">
MtCO2e</text>
<line id="vertical" width="1" stroke="#cccccc" x1="376" y1="262" x2="376" y2="15" />
<polygon stroke-width="0" stroke="#000" id="mit_oblig" fill="#8ebd7f" fill-opacity="0.8" points="278,58 289,58 300,58 311,58 322,58 333,58 344,58 355,57 365,57 376,56 387,56 398,55 409,55 420,54 431,53 442,52 452,51 463,50 474,49 485,48 485,261 474,257 463,252 452,246 442,239 431,232 420,223 409,213 398,203 387,191 376,178 365,163 355,148 344,131 333,112 322,94 311,80 300,68 289,61 278,58 " />
<polygon stroke-width="0" stroke="#000" id="intl_oblig" style="fill:url(#intl_oblig_stripes);" fill-opacity="0.8" points="278,58 289,59 300,62 311,67 322,73 333,80 344,87 355,94 365,100 376,106 387,111 398,116 409,120 420,124 431,128 442,131 452,135 463,138 474,140 485,143 485,261 474,257 463,252 452,246 442,239 431,232 420,223 409,213 398,203 387,191 376,178 365,163 355,148 344,131 333,112 322,94 311,80 300,68 289,61 278,58 " />
<polyline id="bau" stroke-width="1" stroke="#000" points="278,58 289,58 300,58 311,58 322,58 333,58 344,58 355,57 365,57 376,56 387,56 398,55 409,55 420,54 431,53 442,52 452,51 463,50 474,49 485,48 " fill="none" />
<polyline id="physical" stroke-width="1" stroke="#000" points="278,58 289,59 300,62 311,67 322,73 333,80 344,87 355,94 365,100 376,106 387,111 398,116 409,120 420,124 431,128 442,131 452,135 463,138 474,140 485,143 " fill="none" />
<polyline id="gdrs_alloc" stroke-width="1" stroke="#000" points="278,58 289,61 300,68 311,80 322,94 333,112 344,131 355,148 365,163 376,178 387,191 398,203 409,213 420,223 431,232 442,239 452,246 463,252 474,257 485,261 " fill="none" />
<polyline id="historical" stroke-width="1" stroke="#000" points="50,65 61,68 72,71 83,67 94,58 104,64 115,55 126,57 137,63 148,64 159,67 170,58 181,55 191,42 202,49 213,68 224,49 235,52 246,65 257,68 268,57 278,58 " fill="none" />
</svg>
