<?xml version="1.0" standalone="no"?>
<?xml-stylesheet type="text/css" href="http://gdrights.org/calculator_dev/css/country_graphs.css" ?>
<svg width="500px" height="312px" version = "1.1"
   baseProfile="basic"
   xmlns="http://www.w3.org/2000/svg">
<defs>
<pattern id="intl_oblig_stripes" x="0" y="0" width="2%" height="1%" patternUnits="objectBoundingBox"><line class="stripe" x1="0" y1="0" x2="0" y2="100" style="stroke:#F00; stroke-width:5"/></pattern>
</defs>
<line class="hrule" x1="50" y1="262" x2="485" y2="262" width="1" stroke="black" stroke-dasharray="1,2" />
<line class="hrule" x1="50" y1="98" x2="485" y2="98" width="1" stroke="black" stroke-dasharray="1,2" />
<line class="hrule" x1="50" y1="16" x2="485" y2="16" width="1" stroke="black" stroke-dasharray="1,2" />
<line x1="50" y1="180" x2="485" y2="180" stroke="black" />
<text text-anchor="middle" font-family="Arial" font-size="9pt" x="50" y="198">
1990</text>
<text text-anchor="middle" font-family="Arial" font-size="9pt" x="267" y="198">
2010</text>
<text text-anchor="middle" font-family="Arial" font-size="9pt" x="484" y="198">
2030</text>
<text class="axis-title" text-anchor="middle" font-family="Arial" font-size="11pt" x="268" y="215">
year</text>
<text text-anchor="middle" font-family="Arial" font-size="9pt" x="32" y="267">
-5,000</text>
<text text-anchor="middle" font-family="Arial" font-size="9pt" x="32" y="185">
0</text>
<text text-anchor="middle" font-family="Arial" font-size="9pt" x="32" y="103">
5,000</text>
<text text-anchor="middle" font-family="Arial" font-size="9pt" x="32" y="21">
10,000</text>
<text class="axis-title" text-anchor="middle" font-family="Arial" font-size="11pt" x="0" y="0" transform="rotate(-90) translate(-138,15)">
MtCO2e</text>
<polygon stroke-width="0" stroke="#000" id="mit_oblig" fill="#8ebd7f" fill-opacity="0.8" points="278,75 289,75 300,75 311,75 322,74 333,74 344,74 355,73 365,73 376,72 387,71 398,71 409,70 420,69 431,68 442,67 452,66 463,65 474,64 485,63 485,258 474,254 463,250 452,244 442,238 431,231 420,223 409,215 398,205 387,194 376,182 365,169 355,155 344,140 333,124 322,108 311,94 300,84 289,78 278,75 " />
<polygon stroke-width="0" stroke="#000" id="intl_oblig" style="fill:url(#intl_oblig_stripes);" fill-opacity="0.8" points="278,75 289,76 300,79 311,82 322,87 333,93 344,99 355,105 365,110 376,115 387,120 398,124 409,127 420,131 431,134 442,137 452,140 463,142 474,145 485,147 485,258 474,254 463,250 452,244 442,238 431,231 420,223 409,215 398,205 387,194 376,182 365,169 355,155 344,140 333,124 322,108 311,94 300,84 289,78 278,75 " />
<polyline id="bau" stroke-width="1" stroke="#000" points="278,75 289,75 300,75 311,75 322,74 333,74 344,74 355,73 365,73 376,72 387,71 398,71 409,70 420,69 431,68 442,67 452,66 463,65 474,64 485,63 " fill="none" />
<polyline id="physical" stroke-width="1" stroke="#000" points="278,75 289,76 300,79 311,82 322,87 333,93 344,99 355,105 365,110 376,115 387,120 398,124 409,127 420,131 431,134 442,137 452,140 463,142 474,145 485,147 " fill="none" />
<polyline id="gdrs_alloc" stroke-width="1" stroke="#000" points="278,75 289,78 300,84 311,94 322,108 333,124 344,140 355,155 365,169 376,182 387,194 398,205 409,215 420,223 431,231 442,238 452,244 463,250 474,254 485,258 " fill="none" />
<polyline id="historical" stroke-width="1" stroke="#000" points="50,84 61,84 72,83 83,81 94,79 104,78 115,75 126,73 137,73 148,72 159,69 170,71 181,70 191,70 202,68 213,67 224,69 235,67 246,70 257,79 268,75 278,75 " fill="none" />
</svg>
